<svg xmlns="http://www.w3.org/2000/svg" viewBox="0 0 600 106.2"><defs><style>.cls-1,.cls-3{fill:#fff;}.cls-2{fill:#b8282e;}.cls-2,.cls-3{fill-rule:evenodd;}</style></defs><title>Asset 2</title><g id="Layer_2" data-name="Layer 2"><g id="layer"><rect class="cls-1" width="106.1" height="106.2"/><path class="cls-2" d="M72.5,54.3c-1.2-.8-1.2-1.7,0-2.5,2.2-1.4,6.8-4.7,6.8-14.2,0-14.2-10.4-22.5-26-22.5-20.6,0-26.1,12.2-26.1,17.2.2,2.4,1.5,2.6,3.4,3a21,21,0,0,0,5,.1c1.2,0,2.7-1.5,3.3-2.9.3-.6,2.4-6.1,14.1-6.1,7.9,0,14.1,3.6,14.1,11.2,0,8.8-9.6,10.4-15.6,10.4A3.21,3.21,0,0,0,48,51.5V55a3.21,3.21,0,0,0,3.5,3.5c6,0,15.6,1.6,15.6,10.4,0,7.6-6.2,11.2-13.9,11.2-8.9,0-13.9-7.3-13.9-14.4V44.8c0-2.3-.5-3.6-4.6-3.6H30.6a3.21,3.21,0,0,0-3.5,3.5v21c0,13.6,10.4,25.6,26.1,25.6s26-8.2,26-22.4c.1-9.5-4.5-13.1-6.7-14.6"/><path class="cls-3" d="M439.9,79.2A17.5,17.5,0,0,1,422,61.6V44.4a17.5,17.5,0,0,1,17.9-17.6c10.8,0,15,7.5,15.8,9.5a2.43,2.43,0,0,1-.6,3.3l-2.6,1.9a2,2,0,0,1-3.2-.6c-1-1.5-3.3-6.3-9.3-6.3s-9.6,5-9.6,9.9V61.7c0,4.9,3.5,9.9,9.6,9.9s8.1-4.5,9.3-6.1c1-1.4,2.1-1.6,3.2-.9l2.5,1.7c1.4,1,1.6,2.1,1,3.3-1.3,2.4-5.4,9.6-16.1,9.6"/><path class="cls-3" d="M496.1,44.4c0-4.9-3.5-9.9-9.6-9.9s-9.6,5-9.6,9.9V61.6c0,4.9,3.5,9.9,9.6,9.9s9.6-5,9.6-9.9Zm-9.6,34.8a17.5,17.5,0,0,1-17.9-17.6V44.4a17.9,17.9,0,0,1,35.8,0V61.6c.1,9.4-7.1,17.6-17.9,17.6"/><path class="cls-3" d="M534.3,34.6c-6.1,0-9.6,5-9.6,9.9v2.6a2.21,2.21,0,0,0,2.4,2.4h7.2c2.8,0,9.6-1.1,9.6-7.2,0-5.2-4.5-7.7-9.6-7.7m15.5,43.6h-3.6a2.21,2.21,0,0,1-2.4-2.4V66.6c0-4.9-3.5-9.9-9.6-9.9H527a2.21,2.21,0,0,0-2.4,2.4V75.7a2.21,2.21,0,0,1-2.4,2.4h-3.6a2.21,2.21,0,0,1-2.4-2.4V44.4a17.5,17.5,0,0,1,17.9-17.6c10.2,0,17.9,5.8,17.9,15.4a11.42,11.42,0,0,1-4.9,9.8c-.9.7-.9,1.5,0,2.3,2.4,2.1,4.9,5.4,4.9,12.2v9.2a2,2,0,0,1-2.2,2.5"/><path class="cls-3" d="M582.1,34.6c-6.1,0-9.6,5-9.6,9.9s3.5,9.9,9.6,9.9,9.6-5,9.6-9.9-3.6-9.9-9.6-9.9m0,27.5a20,20,0,0,1-7.8-1.7c-1-.4-1.7.1-1.7,1V75.7a2.21,2.21,0,0,1-2.4,2.4h-3.6a2.21,2.21,0,0,1-2.4-2.4V44.4a17.9,17.9,0,1,1,17.9,17.7"/><path class="cls-3" d="M200,34.6c-6.1,0-9.5,5-9.5,9.9v2.6a2.16,2.16,0,0,0,2.4,2.4h7.2c2.8,0,9.6-1.1,9.6-7.2-.2-5.2-4.6-7.7-9.7-7.7m15.5,43.6h-3.6a2.21,2.21,0,0,1-2.4-2.4V66.6c0-4.9-3.5-9.9-9.6-9.9h-7.2a2.21,2.21,0,0,0-2.4,2.4V75.7a2.21,2.21,0,0,1-2.4,2.4h-3.6a2.21,2.21,0,0,1-2.4-2.4V44.4a17.5,17.5,0,0,1,17.9-17.6c10.2,0,17.9,5.8,17.9,15.4a11.42,11.42,0,0,1-4.9,9.8c-.9.7-.9,1.5,0,2.3,2.4,2.1,4.9,5.4,4.9,12.2v9.2a2,2,0,0,1-2.2,2.5"/><path class="cls-3" d="M257.3,44.4c0-4.9-3.5-9.9-9.6-9.9s-9.5,5-9.5,9.9V47a2.21,2.21,0,0,0,2.4,2.4h14.3a2.21,2.21,0,0,0,2.4-2.4V44.4Zm5.9,33.8h-3.6a2.21,2.21,0,0,1-2.4-2.4V59.1a2.16,2.16,0,0,0-2.4-2.4H240.5a2.21,2.21,0,0,0-2.4,2.4V75.7a2.21,2.21,0,0,1-2.4,2.4h-3.5a2.21,2.21,0,0,1-2.4-2.4V44.4a17.9,17.9,0,0,1,35.8,0V75.7a2.19,2.19,0,0,1-2.4,2.5"/><path class="cls-3" d="M311,78.2h-3.1a2.21,2.21,0,0,1-2.4-2.4V49.5c0-.9-1.1-1.1-1.5,0l-5,11.3c-.8,1.8-1.9,3.1-3.6,3.1s-2.8-1.2-3.6-3.1l-5-11.3c-.6-1.1-1.5-.9-1.5,0V75.7a2.21,2.21,0,0,1-2.4,2.4h-3a2.21,2.21,0,0,1-2.4-2.4V30.3a2.21,2.21,0,0,1,2.4-2.4h4.2a3.67,3.67,0,0,1,3.2,2.4l7.2,17.5c.2.5.5,1.1,1,1.1s.7-.5,1-1.1l7.2-17.5a3.46,3.46,0,0,1,3.2-2.4h4.2a2.21,2.21,0,0,1,2.4,2.4V75.7a2.36,2.36,0,0,1-2.5,2.5"/><path class="cls-3" d="M358.8,78.2h-3.6a2.21,2.21,0,0,1-2.4-2.4V59.1a2.21,2.21,0,0,0-2.4-2.4H336.1a2.21,2.21,0,0,0-2.4,2.4V75.7a2.21,2.21,0,0,1-2.4,2.4h-3.6a2.21,2.21,0,0,1-2.4-2.4V30.3a2.21,2.21,0,0,1,2.4-2.4h3.6a2.21,2.21,0,0,1,2.4,2.4V47a2.21,2.21,0,0,0,2.4,2.4h14.3a2.21,2.21,0,0,0,2.4-2.4V30.3a2.21,2.21,0,0,1,2.4-2.4h3.6a2.21,2.21,0,0,1,2.4,2.4V75.7a2.24,2.24,0,0,1-2.4,2.5"/><path class="cls-3" d="M400.6,44.4c0-4.9-3.5-9.9-9.5-9.9s-9.6,5-9.6,9.9V47a2.21,2.21,0,0,0,2.4,2.4h14.3a2.21,2.21,0,0,0,2.4-2.4Zm5.9,33.8h-3.6a2.21,2.21,0,0,1-2.4-2.4V59.1a2.21,2.21,0,0,0-2.4-2.4H383.8a2.21,2.21,0,0,0-2.4,2.4V75.8a2.21,2.21,0,0,1-2.4,2.4h-3.6a2.21,2.21,0,0,1-2.4-2.4V44.5a17.9,17.9,0,0,1,35.8,0V75.7a2.09,2.09,0,0,1-2.3,2.5"/><rect class="cls-1" x="162.2" y="49.4" width="30.3" height="7.2"/><path class="cls-3" d="M165.4,53.8c-.8-.6-.8-1.2,0-1.7,1.5-1,4.7-3.3,4.7-9.8,0-9.8-7.2-15.4-17.9-15.4-14.2,0-17.9,8.4-17.9,11.8.1,1.6,1,1.8,2.4,2.1a20.48,20.48,0,0,0,3.5.1c.8,0,1.9-1.1,2.3-2,.2-.4,1.6-4.2,9.7-4.2,5.4,0,9.7,2.5,9.7,7.7,0,6.1-6.6,7.2-10.7,7.2a2.21,2.21,0,0,0-2.4,2.4v2.4a2.21,2.21,0,0,0,2.4,2.4c4.1,0,10.7,1.1,10.7,7.2,0,5.2-4.2,7.7-9.5,7.7-6.1,0-9.6-5-9.6-9.9V47.3c0-1.6-.4-2.5-3.2-2.5h-2.8a2.21,2.21,0,0,0-2.4,2.4V61.6a17.5,17.5,0,0,0,17.9,17.6c10.7,0,17.9-5.7,17.9-15.4-.2-6.5-3.3-9-4.8-10"/></g></g></svg>